<?xml version="1.0" encoding="UTF-8" standalone="no"?>
<svg
   width="575.43"
   height="675.69"
   version="1.0"
   id="svg65967"
   sodipodi:docname="University_of_Newcastle_Coat_of_Arms.svg"
   inkscape:version="1.1.2 (0a00cf5339, 2022-02-04)"
   xmlns:inkscape="http://www.inkscape.org/namespaces/inkscape"
   xmlns:sodipodi="http://sodipodi.sourceforge.net/DTD/sodipodi-0.dtd"
   xmlns:xlink="http://www.w3.org/1999/xlink"
   xmlns="http://www.w3.org/2000/svg"
   xmlns:svg="http://www.w3.org/2000/svg"
   xmlns:rdf="http://www.w3.org/1999/02/22-rdf-syntax-ns#"
   xmlns:cc="http://creativecommons.org/ns#"
   xmlns:dc="http://purl.org/dc/elements/1.1/">
  <sodipodi:namedview
     id="namedview65969"
     pagecolor="#ffffff"
     bordercolor="#666666"
     borderopacity="1.0"
     inkscape:pageshadow="2"
     inkscape:pageopacity="0.0"
     inkscape:pagecheckerboard="0"
     showgrid="false"
     inkscape:zoom="1.2091344"
     inkscape:cx="287.39569"
     inkscape:cy="337.43148"
     inkscape:window-width="1920"
     inkscape:window-height="1043"
     inkscape:window-x="1920"
     inkscape:window-y="0"
     inkscape:window-maximized="1"
     inkscape:current-layer="svg65967" />
  <title
     id="title65770">University of Newcastle Arms</title>
  <metadata
     id="metadata65772">
    <rdf:RDF>
      <cc:Work
         rdf:about="">
        <dc:format>image/svg+xml</dc:format>
        <dc:type
           rdf:resource="http://purl.org/dc/dcmitype/StillImage" />
        <dc:title>University of Newcastle Arms</dc:title>
        <dc:date>24-MAY-2020</dc:date>
        <dc:creator>
          <cc:Agent>
            <dc:title>Shadowssettle</dc:title>
          </cc:Agent>
        </dc:creator>
        <cc:license>Creative Commons CC BY SA 4.0</cc:license>
        <dc:language>en</dc:language>
        <dc:subject>
          <rdf:Bag>
            <rdf:li>University of Newcastle Arms</rdf:li>
          </rdf:Bag>
        </dc:subject>
      </cc:Work>
    </rdf:RDF>
  </metadata>
  <defs
     id="defs65779">
    <g
       id="s" />
    <clipPath
       id="SVGID_40_">
      <use
         width="100%"
         height="100%"
         overflow="visible"
         xlink:href="#SVGID_39_"
         id="use65775" />
    </clipPath>
    <path
       id="SVGID_39_"
       d="m0 0h212.6v70h-212.6z" />
  </defs>
  <g
     transform="translate(-12.417 -10.706)"
     fill="#003b71"
     id="g65791">
    <g
       transform="matrix(9.6549 0 0 9.6527 12.417 10.706)"
       id="g65787">
      <clipPath
         id="clipPath65783">
        <use
           width="100%"
           height="100%"
           overflow="visible"
           xlink:href="#SVGID_39_"
           id="use65781" />
      </clipPath>
      <path
         class="st19"
         d="m0 0v22.7c0 33.4 29.8 47.3 29.8 47.3s29.8-13.9 29.8-47.3v-22.7"
         clip-path="url(#SVGID_40_)"
         fill="#003a65"
         id="path65785" />
    </g>
    <path
       transform="translate(12.417 10.706)"
       d="m281.11 464.76c-9.403-1.733-18.232-8.5034-23.157-17.757-3.9868-7.4914-3.9499-21.784 0.0758-29.414 8.5016-16.112 28.021-22.327 44.26-14.091 33.896 17.19 16.273 68.164-21.179 61.262z"
       stroke-width="1.3284"
       id="path65789" />
  </g>
  <g
     transform="translate(-.014688)"
     id="g65965">
    <text
       x="227.68839"
       y="381.18161"
       fill="#000000"
       font-family="'Fira Sans'"
       font-size="42.667px"
       letter-spacing="5.24px"
       word-spacing="0px"
       style="line-height:1.25"
       xml:space="preserve"
       id="text65795"><tspan
         x="227.68839"
         y="381.18161"
         font-family="'Old English Five'"
         id="tspan65793" /></text>
    <text
       x="306"
       y="524.29388"
       fill="#000000"
       font-family="'Fira Sans'"
       font-size="42.667px"
       letter-spacing="5.24px"
       word-spacing="0px"
       style="line-height:1.25"
       xml:space="preserve"
       id="text65799"><tspan
         x="306"
         y="524.29388"
         id="tspan65797" /></text>
    <g
       transform="matrix(.056172 0 0 .046982 7.9826 560.5)"
       stroke="#000"
       id="g65801" />
    <g
       id="g65963">
      <g
         id="g65809">
        <path
           d="m288.48 249.04c-44.045 0-45.246 6.3653-45.246 9.6459 0 3.352 24.314 33.109 24.314 75.427 0 19.814-2.8174 32.536-6.4638 41.169-2.3041-0.73821-4.759-1.1436-7.309-1.1436-13.214 0-23.966 10.702-23.966 23.916 0 2.4942 0.38347 4.8968 1.0939 7.1599-8.67 3.7232-21.497 6.6627-41.716 6.6627-42.319 0-72.075-24.314-75.427-24.314-3.2806 0-9.6459 1.2011-9.6459 45.246 0 44.045 6.3653 45.246 9.6459 45.246 3.352 0 33.109-24.314 75.427-24.314 20.219 0 33.046 2.9394 41.716 6.6627-0.7104 2.263-1.0939 4.6656-1.0939 7.1598 0 13.214 10.752 23.916 23.966 23.916 2.55 0 5.005-0.40538 7.309-1.1436 3.6463 8.6333 6.4638 21.356 6.4638 41.169 0 42.319-24.314 72.075-24.314 75.427 0 3.2806 1.201 9.6459 45.246 9.6459 44.045 0 45.246-6.3653 45.246-9.6459 0-3.352-24.314-33.109-24.314-75.427 0-19.86 2.8547-32.585 6.5135-41.219 2.3117 0.74156 4.753 1.1933 7.309 1.1933 13.214 0 23.916-10.702 23.916-23.916 0-2.4942-0.38636-4.8968-1.0939-7.1598 8.67-3.7232 21.497-6.6627 41.716-6.6627 42.319 0 72.075 24.314 75.427 24.314 3.2806 0 9.6459-1.2011 9.6459-45.246 0-44.045-6.3653-45.246-9.6459-45.246-3.352 0-33.109 24.314-75.427 24.314-20.219 0-33.046-2.9395-41.716-6.6627 0.70751-2.263 1.0939-4.6656 1.0939-7.1599 0-13.214-10.702-23.916-23.916-23.916-2.556 0-4.9973 0.45176-7.309 1.1933-3.6588-8.634-6.5135-21.359-6.5135-41.219 0-42.319 24.314-72.075 24.314-75.427 0-3.2806-1.2011-9.6459-45.246-9.6459z"
           color="#000000"
           fill="#fff"
           stroke-width="0"
           id="path65803" />
        <circle
           cx="287.57"
           cy="432.5"
           r="33.845"
           color="#000000"
           fill="#003a65"
           id="circle65805" />
        <rect
           x="9.4117"
           y="9.657"
           width="557.92"
           height="209.46"
           rx="0"
           fill="#fff"
           id="rect65807" />
      </g>
      <g
         transform="matrix(1.1696 0 0 1.1286 -607.04 -767.21)"
         fill="#d5112d"
         id="g65961">
        <g
           transform="matrix(2.3582 0 0 2.3582 1000.7 284.07)"
           fill="#d5112d"
           stroke-width=".73818"
           id="g65959">
          <path
             d="m-156.8 220.07s-3.6832-0.0241-5.158-0.74767c-1.6039-0.78692-3.3213-3.5686-3.3213-3.5686s-4.0608 0.55246-5.9278 0.21351c-1.9507-0.35415-4.7427-2.2238-4.7427-2.2238 1.8649-0.23065 3.2576-0.46646 5.0635-1.6905 0 0-3.5947-0.15948-5.6422-0.81995-1.7826-0.57502-4.6913-2.4806-4.6913-2.4806 1.6621-0.34571 3.4592-0.30282 4.7684-1.6641 0 0-3.5208 0.0266-5.1159-0.46177-1.5924-0.48752-4.1207-2.3643-4.1207-2.3643 1.9348-0.14074 3.7752-0.44144 5.0193-1.7517 0 0-3.5661 0.10149-5.0769-0.39569-2.086-0.68652-5.2774-2.974-5.2774-2.974 2.0068-0.12668 4.003-0.27151 5.5211-1.2257l-1.1284-1.9197c-1.362-2.3175-4.2147-1.5-6.1105-2.1388-1.8619-0.62735-2.9057-2.3378-3.0073-3.2965-0.1791-1.6911 0.85261-4.2742 5.407-3.7348-2.2648-2.8918 0.0932-4.9693 2.503-5.8011 2.3149-0.79943 4.3593-0.58109 5.9312 2.5841 0 0 2.1129-1.4319 3.2576-1.6441 1.5934-0.29539 3.3896 0.14754 3.956 1.3974 0.23287 0.51392 0.31779 1.5888-0.0728 2.2304-0.61778 1.0149-1.9786 1.7101-2.423 3.1946-0.50325 1.6807 1.3499 4.6131 1.3499 4.6131s8.7538 5.8112 12.781 8.994c2.1427 1.6935 6.034 5.3584 6.034 5.3584l0.21506-0.10439h8.6772l0.77475 12.268-9.4425 0.15421z"
             stroke="#fff"
             stroke-width=".73818"
             id="path65811" />
          <path
             d="m-163.59 208.61c-4.0921-7.1229-11.19-10.984-18.776-14.787 4.5496 7.1428 10.608 11.491 18.776 14.787z"
             id="path65813" />
          <g
             stroke="#fff"
             stroke-width=".73818"
             id="g65823">
            <path
               d="m-175.67 182.35c0.30486 1.2121-0.30619 2.0871-1.6166 2.4211-0.6513 0.16603-1.4043 5.3e-4 -2.1899-0.68438 0.37786-2.0134 0.18887-2.8038-1.4694-4.5273 4.1462 0.74083 4.3036 2.2793 5.2758 2.7906z"
               id="path65815" />
            <path
               d="m-187.23 181.41c0.87654 0.99744 0.75285 2.006-0.27483 2.7647-0.51075 0.37714-1.2779 0.48785-2.3315 0.13702-0.65118-1.9638-1.2139-2.6176-3.575-3.6109 4.1401-0.76454 5.0437 0.58113 6.1814 0.70919z"
               id="path65817" />
            <path
               d="m-193.8 188.27c1.293 0.6004 1.6824 1.5603 1.1258 2.609-0.27659 0.52123-0.91883 0.88989-2.051 0.93909-1.569-1.5574-2.4058-1.9552-5.0462-2.0331 3.3826-2.1413 4.8735-1.2339 5.9713-1.515z"
               id="path65819" />
            <path
               d="m-106.8 225.7c-1.5294-0.37415-3.3963-2.059-5.0185-2.0513-1.7084 9e-3 -2.913 0.80719-3.7725 1.881-0.41016 0.51238 0.23369 2.4294 0.87275 2.7975l2.9428 1.6951s-1.8421 1.7733-1.9817 2.7717c-0.12127 0.86731 0.39859 1.5636 1.1405 2.2484 0.96742 0.89276 1.2048 1.2379 2.7462 1.426 0.92048 0.11235 3.0988-0.22453 3.0988-0.22453s-0.0509 1.4227 0.48726 2.0794c0.97506 1.19 2.6307 2.2391 4.522 2.0717 1.477-0.13058 1.9563-0.31802 2.7369-1.2392 0.61899-0.73048 0.49522-2.5976 1.5003-3.3669l4.0876-3.1284c1.7648 0.89493 1.7179 2.229 1.4985 3.6049 0 0 2.6235-1.3888 3.404-2.3839 0.81318-1.0367 1.1347-3.4841 1.1347-3.4841 1.661 1.2555 2.2107 2.3774 1.8547 3.8774 0 0 2.6707-1.3974 3.5301-2.3839 0.9674-1.1104 1.8015-3.5106 1.8015-3.5106 1.2161 0.99137 1.4728 2.4014 1.0086 4.1259 0 0 2.9845-1.6755 3.7823-3.0257 0.63069-1.0674 1.0086-2.934 1.0086-2.934 3.6265 0.22061 5.9685-1.1017 6.1282-2.4708 0.12378-1.0618-1.3108-2.5094-4.2308-2.9296 0 0-1.0779-1.3488-1.4859-2.3463-0.28047-0.68566-0.30132-1.4651 0-2.146 0.60275-1.3622 2.0075-2.5084 3.4427-3.4873 1.9741-1.3465 6.2707-3.0402 6.2707-3.0402l-1.2571-5.2744-14.632-1.8778-16.173 3.3403c2.9477 1.1333 9.5502 5.0083 9.0112 6.477-0.20169 0.54957-1.6062 1.0701-2.2778 1.8057-0.49458 0.54178-0.1173 1.4077 0.36886 1.9672 0.68019 0.78267 2.3053 0.96252 2.828 1.6989 0.47029 0.66269 0.68403 1.2536 0.12299 1.8778-1.1076 1.2324-4.8327 1.7501-6.6396 2.4143-3.2927 1.2104-8.8679 3.8495-8.8679 3.8495-1.7338 0.18933-3.3956-0.31373-4.994-0.7048z"
               id="path65821" />
          </g>
          <path
             d="m-101.11 228.29s4.0652-1.7921 6.224-2.686c3.4038-1.4095 9.3538-1.7814 10.849-4.7056 0 0 0.42296-0.64934 0.28456-1.5499-0.2072-1.3482-3.0123-2.4627-2.1342-3.9343l0.71139-1.1922s2.9837 1.0759 3.8415 1.9075c0.69691 0.67566 0.79714 1.8006 1.7073 2.2652 0.93508 0.47729 3.2724 0.23845 3.2724 0.23845l1.4228 3.4574s2.1664-0.015 2.9878 0.83454c0.24071 0.24894 0.28617 0.65692 0.14228 0.95376-0.22858 0.4715-1.5444 0.59125-2.1176 0.7597-1.1188 0.32885-2.8456-0.73187-2.8456-0.73187s0.59907 2.3449 0.30423 3.1047c-0.20343 0.52511-0.99596 1.4306-0.99596 1.4306-0.62922-0.89592-1.0383-1.3318-3.8778-2.5364 0 0-0.34228 1.999-1.1048 3.2541-0.35287 0.58084-1.4228 1.5499-1.4228 1.5499s-0.64849-1.1031-1.1382-1.5499c-0.91759-0.83707-3.5904-1.2274-3.5904-1.2274s-0.52636 2.4524-1.2777 3.759c-0.27696 0.48166-0.75051 1.1922-0.75051 1.1922s-0.51244-1.1254-0.99595-1.5499c-0.57283-0.50285-2.1342-1.073-2.1342-1.073l-5.5126 3.815s-0.83385 2.2571-2.1313 2.9829c-0.75049 0.4198-1.1517 0.21467-1.9613-0.11922-0.3923-0.1618-0.74452-0.47976-0.85367-0.83455-0.3506-1.1396 0.53568-2.5692 0.53568-2.5692s-2.9652 0.9741-4.9157 0.50966c-0.74263-0.17682-1.6687-0.6653-1.7073-1.3114-0.0889-1.4898 2.497-2.8941 2.497-2.8941s-2.9202-0.57496-4.1317-1.9683c-0.39497-0.45422-0.67523-1.2122-0.28456-1.6691 0.4497-0.52585 1.5193-0.4842 2.2764-0.35767 1.4448 0.24146 2.1026 1.6838 3.5626 1.8491z"
             id="path65825" />
          <path
             d="m-82.148 223.79c-7.1643-0.30819-12.763 2.5964-18.486 5.832 7.3411 0.0283 12.966-2.025 18.486-5.832z"
             id="path65827" />
          <g
             stroke="#fff"
             stroke-width=".73818"
             id="g65861">
            <g
               id="g65835">
              <path
                 d="m-114.69 224.08c1.3417 0.51993 1.8134 1.4536 1.3493 2.5334-0.23065 0.5367-0.83914 0.94354-1.964 1.0616-1.7-1.4577-2.5692-1.8034-5.2093-1.7201 3.1878-2.3418 4.7535-1.5277 5.824-1.8749z"
                 id="path65829" />
              <path
                 d="m-113.38 232.51c1.4776-0.0382 2.3981 0.61976 2.5599 1.7594 0.0805 0.56644-0.24641 1.1585-1.1893 1.686-2.2988-0.6659-3.2607-0.64908-5.5772 0.41554 1.5997-3.2898 3.4348-3.1489 4.2066-3.8609z"
                 id="path65831" />
              <path
                 d="m-105.46 238.4c1.2385-0.67625 2.4331-0.51502 3.2782 0.38811 0.42008 0.44889 0.50811 1.097 0.0298 1.9583-2.377 0.43238-3.1883 0.86569-4.5068 2.7841-0.67405-3.5072 0.98102-4.1861 1.1987-5.1305z"
                 id="path65833" />
            </g>
            <path
               d="m-49.207 179.95c2.4726-0.2276 7.5491-1.0722 9.2536-2.4678 0.79447-0.65048 3.0216-2.4678 3.0216-2.4678-0.47204 4.1027-2.9822 6.7622-8.3094 8.5646-4.2506 1.4382-9.1574 1.7709-13.786 1.4516-2.9146-0.20104-8.3094-1.4516-8.3094-1.4516 2.9595 2.6582 1.4554 4.5344-2.2662 5.8065 0 0 0.55144-2.5457-0.56655-2.9032-2.4111-0.77099-5.1294 0.2336-7.6897 1.4135-1.8912 0.87151-4.7547 1.2779-6.6835 1.2601-3.2131-0.0296-4.9939-0.0607-7.9988-0.93582-1.8122-0.52775-4.956-2.541-6.288-2.341-2.8753 0.4318-6.5068 0.67459-8.1428 2.5428-0.56838 0.64904-0.49868 1.6651 0 2.3472 1.1189 1.5304 3.632 2.3295 5.8526 2.7383 6.6045 1.2159 11.995 1.2079 18.513 0.43581 6.718-0.79572 14.563-2.3893 21.279-3.351 6.6577-0.95333 15.241-2.7547 20.287-3.6252 8.9169-1.5386 12.917-1.7505 19.59-1.6686 11.686 0.14337 15.512 4.9125 15.156 10.117-0.36558 5.3471-7.4074 7.7683-13.437 9.2684-10.6 2.6375-25.155 1.1355-34.302 0.95529 0 0 3.0664 1.9739 4.4575 2.8763 1.6296 1.0571 2.444 3.2677 4.4575 3.807 2.7617 0.73972 6.9859-0.72685 9.9056-0.8566 4.0826-0.18139 11.02 0.19036 11.02 0.19036 1.0621-0.83142 1.7504-1.4086 2.8542-1.6574 0.7915-0.17882 2.0373-0.18843 2.6727-2e-3 1.2572 0.36902 2.1029 1.5058 1.5757 3.6218 0 0 0.8712 0.93787 2.2007 1.1539 1.4075 0.22916 3.0512 0.0269 3.8534 0.22148 1.3232 0.32072 3.466 1.3321 3.466 1.3321s-2.2712 0.55305-3.2163 0.9956c-0.64686 0.30291-1.51 1.3053-1.51 1.3053s3.1115 0.0413 4.4112 0.48439c1.3921 0.47464 2.6782 1.8165 2.6782 1.8165s-1.8734-0.10198-2.7663 0.33125c-0.68258 0.33119-1.8025 1.243-1.8025 1.243s3.6421-0.22752 4.8838 0.60548c1.0993 0.73746 2.3632 2.0587 2.3632 2.0587s-1.965-0.0318-2.8953 0.17389c-0.60517 0.13388-1.6735 0.6738-1.6735 0.6738s2.5176 1.0088 3.6235 2.1798c0.8834 0.93542 1.1028 3.0274 1.1028 3.0274s-1.4826-0.85404-2.3935-1.1676c-0.56963-0.19612-1.8602-0.16442-1.8602-0.16442l0.58982 4.295c0.14503 1.0561 2.0714 2.1996 2.4151 3.0166 0.43344 1.0304 0.32486 1.4175-0.45283 2.3205-0.99563 1.1564-3.0521 1.3926-4.8302 1.1602-0.98113-0.12819-2.3598-1.0798-2.3598-1.0798s-1.0039 1.4253-1.6806 1.8623c-1.1331 0.73178-1.6208 0.63925-3.0997 0.59565-1.1342-0.0335-2.1435-0.19751-2.9285-0.8277-0.90358-0.7254-1.5296-2.897-1.5296-2.897l-3.4871 0.52988c-0.75726 0.11506-3.0524-0.77267-3.3082-1.3325-0.53624-1.1732-0.58821-2.359 0.45283-3.3108 0.98846-0.90371 3.722-0.95079 5.1148-1.4485 1.7846-0.63766 3.4996-2.4831 3.4996-2.4831s-5.8258-3.4446-8.3452-5.587c-1.3853-1.178-3.7688-3.9316-3.7688-3.9316s-7.4287 1.7199-10.23 2.0692c-6.9088 0.86179-14.268 0-14.268 0-10.56 0-17.587-12.466-27.189-15.312-2.9304-0.86854-4.3098-0.73258-7.3751-0.20692-11.127 1.9081-23.005 12.746-34.029 14.981-4.5252 0.91746-13.998 1.2416-13.998 1.2416s-1.5512 2.5679-3.018 3.301c-1.5952 0.79727-5.6003 0.84938-5.6003 0.84938s-1.0243 3.0706-2.1977 4.2372c-1.2259 1.2189-4.5949 2.4001-4.5949 2.4001 0.49772-1.4006 0.79413-2.4729 0.0907-4.2428 0 0-1.675 2.45-3.3038 3.61-1.4181 1.0099-4.8778 2.258-4.8778 2.258 0.2776-1.3062 1.0713-2.5463 0-4.0253 0 0-1.4239 2.4752-2.6619 3.3898-1.2358 0.91297-4.5042 1.9067-4.5042 1.9067 0.63316-1.4124 1.0378-2.8248 0-4.2372 0 0-1.354 2.5379-2.5676 3.3898-1.6756 1.1762-5.7047 2.4642-5.7047 2.4642 0.67957-1.457 1.3332-2.914 0.83051-4.371l-2.7404-3e-3c-3.3084-5e-3 -3.5192 2.3298-5.0596 3.3926-1.5128 1.0438-3.9706 1.0673-5.1482 0.74203-2.0773-0.57373-3.9239-2.5908-1.4022-5.5554-4.3619 0.38964-6.6348-1.8925-6.6239-3.923 0.0103-1.9507 0.85974-3.6728 5.259-3.4645 0 0-0.56866-1.6892-0.34682-2.5782 0.30881-1.2374 1.5761-2.3114 3.2908-2.1911 0.70504 0.0494 2.0134 0.43438 2.612 0.973 0.94682 0.85194 1.2079 2.0918 2.7826 3.0166 1.7829 1.047 6.0227 0.96228 6.0227 0.96228s8.2398-3.7245 13.675-5.2272c2.8919-0.79958 11.105-2.0081 11.105-2.0081l0.25737-16.852c4.9354 0.25445 2.8128 0.29014 6.9866 0.18599 5.9953-0.1496 21.745 1.8806 21.745 1.8806l11.214-0.64097s18.706-2.3572 27.604-3.0944c4.483-0.37136 9.0129-0.63837 13.515-0.44205 6.7808 0.29568 12.605 1.7007 18.978 1.9892 5.3591 0.24264 9.0194 0.6994 14.377 0.44204 7.65-0.36745 21.325 0.0637 25.67-5.7136 1.1278-1.4993 0.54867-3.5531-1.1344-4.7078-2.2207-1.5235-3.7997-2.0972-6.7614-1.5736-1.5621 0.27621-3.5483 1.1926-3.7431 2.3203-0.10557 0.6113 0.0267 1.3755 0.6944 2.0974 1.1478 1.2412 2.4449 1.6151 2.4449 1.6151s-3.3186 0.37244-4.8297-0.55687c-1.5904-0.97806-3.0186-4.0837-3.0186-4.0837-0.74774 0.79268-1.2975 1.6614-1.1715 2.7899 0.10855 0.97259-0.0046 1.5812 1.413 3.0572 0 0-3.5108-0.18846-5.192-1.6706-1.1299-0.99617-2.0527-3.9909-2.0527-3.9909-0.99615 0.75569-1.6041 1.9794-1.6466 2.8817-0.06132 1.303 0.67359 1.8746 1.0428 3.2438 0 0-3.4606-0.78175-4.8297-2.2275-1.0624-1.1219-1.6293-4.0686-1.6293-4.0686-3.981 0.7627-11.58 1.841-19.855 3.207-5.8298 0.96232-14.733 2.4412-21.025 3.0491-10.806 1.044-18.673 0.50372-25.316-1.6634-3.4569-1.1277-5.0144-2.2125-5.9056-4.7734-0.50581-1.4536 0.23926-3.5128 1.9551-5.1159 2.3921-2.235 6.5471-3.908 11.188-4.792 0 0 12.292-2.537 19.452-3.0484 11.479-0.81993 16.146 0.41313 20.943 0.87755 3.1175 0.30182 6.4717-0.19329 7.4533-1.094 0.82606-0.75801 2.1927-1.5749 0.35147-3.4026 0 0 2.3329 0.0357 3.8819 2.2379 0.63263 0.89941-0.14779 2.9779-0.14779 2.9779z"
               id="path65837" />
            <path
               d="m-4.7086 235.33c0.43344 1.0304 1.4124 3.2907 0.63466 4.1936-0.99563 1.1564-3.0521 1.3926-4.8302 1.1602-0.98113-0.12818-2.3598-1.0798-2.3598-1.0798s-1.0039 1.4253-1.6806 1.8623c-1.1331 0.73177-1.6208 0.90212-3.0997 0.85852-1.1342-0.0335-2.1435-0.46036-2.9285-1.0906-0.90358-0.7254-1.5296-2.897-1.5296-2.897l-3.4871 0.52987c-0.75726 0.11507-3.0524-0.77265-3.3082-1.3325-0.53624-1.1732-0.58821-2.359 0.45283-3.3108 0.98846-0.90371 3.722-0.9508 5.1148-1.4485 1.7846-0.63767 3.4996-2.4831 3.4996-2.4831s-5.8258-3.4446-8.3452-5.587c-1.3853-1.178-3.7688-3.9316-3.7688-3.9316s-7.4287 1.7199-10.23 2.0692c-6.9088 0.86179-9.5118 0-14.268 0-10.56 0-17.587-12.466-27.189-15.312-2.9304-0.86855-4.3098-0.73259-7.3751-0.20694-11.127 1.9081-23.005 12.746-34.029 14.981-4.5252 0.91746-13.998 1.2416-13.998 1.2416s-1.5512 2.5679-3.018 3.301c-1.5952 0.79727-5.6003 0.84939-5.6003 0.84939s-1.0243 3.0706-2.1977 4.2372c-1.2259 1.2189-4.5949 2.4002-4.5949 2.4002 0.49772-1.4006 0.79413-2.4729 0.0907-4.2428 0 0-1.675 2.45-3.3038 3.61-1.4181 1.0099-4.8778 2.258-4.8778 2.258 0.2776-1.3062 1.0713-2.5463 0-4.0253 0 0-1.4239 2.4752-2.6619 3.3898-1.2358 0.91296-4.5042 1.9067-4.5042 1.9067 0.63316-1.4124 1.0378-2.8248 0-4.2372 0 0-1.354 2.5379-2.5676 3.3897-1.6756 1.1762-5.7047 2.4642-5.7047 2.4642 0.67957-1.457 1.3332-2.914 0.83051-4.371l-2.7404-3e-3c-3.3084-5e-3 -3.5192 2.3298-5.0596 3.3926-1.5128 1.0438-3.9706 1.0673-5.1482 0.74203-2.0773-0.57373-3.9239-2.5908-1.4022-5.5554-4.3619 0.38963-6.6348-1.8925-6.6239-3.9229 0.0103-1.9507 0.85974-3.6728 5.259-3.4645 0 0-0.56866-1.6892-0.34682-2.5782 0.30881-1.2374 2.5213-0.9015 3.2908-2.1911 0.0676-0.11328 1.8216 1.0694 1.4492 2.566-0.25581 1.028-1.8766 1.8379-2.1571 2.2357-0.61541 0.87271 0.74854 1.853 0.74854 1.853s-2.9471-0.933-4.736-0.49037c-0.64593 0.15982 1.6949-0.0429 1.9249 2.0215 0.24424 2.192-1.7364 1.7811-0.68283 1.9542 1.8234 0.29962 5.6568 0.2091 5.6568 0.2091 0.092 0-3.7052 3.7328-2.5789 3.2522 0.73713-0.31451 1.7658-0.024 2.3011 0.46275 0.47507 0.43204 0.98007 1.2056 0.31511 2.0395-0.43382 0.54406 0.68792 0.26842 1.2105-0.20912 2.4285-2.2192 3.8457-4.7132 7.487-5.1968 1.1075-0.14709 2.7486 0.12781 3.5771 0.76678 0.88586 0.68317 0.91507 2.9277 0.91507 2.9277s1.418-1.2452 1.9966-1.9518c0.92644-1.1316 2.3293-3.6248 2.3293-3.6248s2.0422 1.9073 2.8284 2.9974c0.28253 0.3917 0.6655 1.2547 0.6655 1.2547s1.4594-1.6586 1.9966-2.5792c0.63163-1.0827 1.4142-3.4157 1.4142-3.4157s1.9375 1.8891 2.5789 2.9974c0.3523 0.60885 0.66551 1.9518 0.66551 1.9518s2.3552-2.2406 3.1612-3.5551c0.62523-1.0196 1.2478-3.2762 1.2478-3.2762s2.3189 1.4418 3.078 2.4398c0.51845 0.68158 0.91507 2.3003 0.91507 2.3003s1.5363-2.0489 1.747-3.1368c0.23097-1.1926 0.16638-3.4156 0.16638-3.4156s3.9662 1.4991 5.74 0.83648c2.0028-0.74809 3.4939-4.6704 3.4939-4.6704s10.984-0.23886 16.118-1.6802c3.3594-0.94323 7.8851-3.1958 11.034-4.5568 0 0 11.133-6.4003 18.236-8.5143 2.8401-0.84522 6.5221-1.5499 9.5177-1.2723 4.1196 0.38178 7.0093 2.5591 10.485 4.4513 5.4605 2.973 9.1683 8.3549 15.141 10.53 3.3496 1.2196 8.4933 1.3216 12.143 1.2072 6.1199-0.19181 17.064-2.5711 17.064-2.5711s2.6693 3.9236 4.8958 5.8117c2.771 2.3499 8.834 5.8973 8.834 5.8973s-1.8906 2.6142-3.4507 3.4171c-1.7052 0.87764-3.6208 1.1568-5.4112 1.9057-0.33574 0.14042 1.3367-0.0808 1.6016 0.73696 0.22597 0.69762-0.32533 1.2634 0.51582 1.103 1.4137-0.26958 3.3722-0.92 3.3722-0.92s-0.32632 1.4558 0.3009 2.3238c1.9982-0.62294 4.2645-0.37876 4.3952 2.0284 0.85375-0.34132 0.51017-0.9878 0.95037-1.4608l0.86266-2.4971s0.4479 1.2488 2.1046 1.9714c1.1431-1.9987 4.735-1.9873 5.8185 0.15626-0.42971-0.30063-0.37685-3.1766-0.37685-3.1766z"
               id="path65839" />
            <path
               d="m-153.68 220.21s1.6142 2.5466 3.6869 3.5814c0.92991 0.46427 2.9287 1.1866 2.9287 1.1866l0.40883-2.6658s1.8557-0.59496 3.0104-1.1212c1.1548-0.52618 3.8467-2.1021 3.8467-2.1021l0.50174 2.3824s6.1989-2.547 8.6969-4.4846c1.6694-1.2949 3.2875-2.8184 4.014-4.6247 0.83694-2.0811 0.16724-6.5867 0.16724-6.5867l-16.923 0.49812-3.8489 12.286-6.4899 1.6503z"
               id="path65841" />
            <path
               d="m-6.626 229.89s1.2906-0.0317 1.8602 0.16443c0.91094 0.31361 2.3935 1.1676 2.3935 1.1676s-0.2194-2.092-1.1028-3.0274c-1.1059-1.171-3.6235-2.1798-3.6235-2.1798s1.0683-0.53991 1.6735-0.67378c0.93026-0.20579 2.8953-0.17391 2.8953-0.17391s-1.2638-1.3212-2.3632-2.0587c-1.2418-0.833-4.8838-0.60548-4.8838-0.60548s1.1199-0.91184 1.8025-1.243c0.89287-0.43324 2.7663-0.33125 2.7663-0.33125s-1.2861-1.3418-2.6782-1.8165c-1.2997-0.44311-4.4112-0.48441-4.4112-0.48441s0.86315-1.0023 1.51-1.3052c0.94505-0.44256 3.2163-0.99561 3.2163-0.99561s-2.1428-1.0114-3.466-1.3321c-0.80215-0.19449-2.4458 7e-3 -3.8534-0.22148-1.3295-0.21607-2.2007-1.1539-2.2007-1.1539 0.52719-2.116-0.31857-3.2528-1.5757-3.6218-0.63537-0.1865-1.8812-0.17691-2.6727 2e-3 -1.1038 0.24881-1.7921 0.82597-2.8542 1.6574 0 0-6.9374-0.37175-11.02-0.19036-2.9197 0.12973-7.1439 1.5963-9.9056 0.85659-2.0135-0.53932-2.828-2.75-4.4575-3.807-1.3911-0.90236-4.4575-2.8762-4.4575-2.8762-3.4027-3.4176-3.6929-3.8852-9.6082-5.5267-3.7893-0.57822-2.9742-0.28384-7.1518-0.46601-4.5017-0.1963-9.0317 0.0707-13.515 0.44206-8.8989 0.73719-27.604 3.0943-27.604 3.0943l-11.214 0.64099s-15.75-2.0302-21.745-1.8806c-4.1738 0.10417-2.0512 0.0685-6.9866-0.18598l-0.0433 2.8401s9.658 1.7608 14.827 2.1863c4.9949 0.41116 9.5843 0.30093 14.601 0.17789 9.3796-0.23006 19.439-3.1681 28.765-4.0398 7.469-0.69812 15.728-1.7106 22.524-0.83511 5.7084 0.73536 7.8985 2.3139 12.822 4.8437 4.1411 2.1277 8.3406 7.8501 13.888 7.8501 0 0 3.1367-0.13381 5.1825-0.33405 2.5771-0.25224 4.3898-0.99842 6.9764-1.1692 3.5205-0.2324 8.3625 0.25809 8.3625 0.25809 2.2812-2.2269 3.4477-2.2716 4.1031-1.9882 1.4433 0.62419 1.6396 2.0048 0.33973 3.4033 1.435 0.75653 2.3522 1.9988 6.7198 1.822-1.923 1.1723-2.5041 1.7571-3.2948 3.2005 1.6394-0.41378 3.3582-0.0197 5.812 0.52193-1.7361 1.1376-2.215 2.2689-2.8151 3.2706 1.6298-0.16279 2.8483 0.10966 5.7766 0.4909-1.6709 0.6702-2.9271 0.98877-3.2078 1.9178 1.908 0.83333 1.7311 0.50489 4.5067 2.3076-1.7637 0.17559-2.8405 0.1777-3.5281 1.1262l3.3639 4.1z"
               id="path65843" />
            <path
               d="m-56.4 205.33 12.574 0.5431 10.5 0.10862h6.6111c7.6025-1.2842 16.458-2.6882 20.093-9.1242l0.12964-4.7793c-0.32999 2.8419-1.752 5.071-3.984 6.7562-10.581 7.9888-34.202 5.3202-45.534 2.5853l-7.9074-0.86898z"
               id="path65845" />
            <path
               d="m-40.7 189.56c-8.3242 0.57201-29.254 5.392-45.339 6.5136-8.593 0.59921-17.975 0.20374-23.389-2.4708-2.3858-1.1785-4.0013-2.7996-4.4395-4.9731l-0.79682 2.5372 2.5498 3.3384 5.7371 2.2701 10.837 1.736 11.793-0.80122 6.6933-0.53414 35.219-5.6086z"
               id="path65847" />
            <path
               d="m-40.717 189.39c0.18671 2.7606 0.91762 3.9251 1.6651 5.041 0.95281-1.7404 1.7357-3.8408 4.7268-5.5811 0.88665 1.9204 1.5539 4.2008 3.008 6.1212 0.71099-2.1753 0.84864-4.8232 3.4377-6.6613 0.93859 1.8137 1.7811 4.0301 2.8468 5.311-0.02304-1.3803-0.19846-3.0306 1.88-4.4109 8.1282-3.6401 18.979 3.074 11.119 7.6965l0.1074 0.0451 0.69828-2.0254-0.75199-2.5205-2.4708-1.6203-3.1691-0.85516-4.0822 0.67513-1.7726 1.5303 0.53714 1.8904 2.6857 2.1154-4.3508-0.27006-1.9337-1.1252-1.6651-2.9706-1.0206 1.6653 0.1074 2.2504 1.3428 1.7103-3.2765-0.58512-2.4171-1.3953-1.7726-3.5107-1.2354 1.2152-0.48343 1.8904 1.2354 2.7905-3.1691-0.99019-2.3634-2.0704-0.8057-3.3306-4.7268 0.94519c1.7411-0.94026-1.6508-0.96424 6.0697-2.9706z"
               id="path65849" />
            <path
               d="m-98.42 185.51 7.2218 2.9312 7.2218 0.75643 4.5136-0.66187 4.965-2.0802 3.9494-0.18911 1.1284 1.2292 0.11291 2.1747 2.5953-1.7965 0.67704-1.5129-0.78988-2.6475 5.3035 1.1346 6.7704 0.37821 6.9961-0.94553 6.2062-2.0802 3.0467-2.6475 1.5798-4.5386s-3.3381 3.9314-5.7549 5.1059c-3.0462 1.4804-6.7718 2.2983-10.268 2.6475-3.3988 0.33937-6.8663-0.25289-10.268-0.56731-3.9457-0.36466-9.8171-2.1747-9.8171-2.1747 1.191 1.4498 2.3968 2.8996 2.7082 4.3495 0 0-3.7137-0.68475-5.671-0.23761-1.543 0.35251-4.4703 1.3399-5.9632 1.8208-2.3174 0.74646-6.0382-0.0136-8.5035-0.25945-2.5456-0.2539-3.4399-1.1961-5.7288-0.68613l-2.2308 0.49702z"
               id="path65851" />
            <path
               d="m-104.48 182.45s3.706 0.46596 5.5653 0.38861c5.5344-0.23022 10.855-1.9159 16.348-2.526 3.3058-0.36719 6.638-0.76661 9.9712-0.68009 4.3322 0.11247 8.5386 1.4174 12.87 1.5545 2.2838 0.0722 4.7801 0.43983 6.8407-0.38862 1.1837-0.4759 2.3639-1.3584 2.6667-2.4288 0.32446-1.147-1.1594-3.4004-1.1594-3.4004l0.11594 0.0972-0.57972 1.7488-2.6667 1.8459-3.1305 0.68007-5.2175-0.38861-7.8842-0.77723h-8.8117l-9.8552 0.97153-9.6233 1.6516z"
               id="path65853" />
            <path
               d="m-48.594 188.13c15.688 1.9358 34.576-6.2851 41.648 4.9252l-0.16793-0.14072 0.50381-1.8294-3.5267-3.2366-4.7022-2.1108-8.7327-0.84432-11.42 0.98504z"
               id="path65855" />
            <path
               d="m-185.56 221.69s0.598 3.5812 2.0713 4.7111c1.8092 1.3874 7.1018 1.6117 7.1018 1.6117s7.6885-3.771 11.836-5.083c3.3796-1.069 6.9884-1.538 10.505-2.2316 1.1299-0.22286 3.4029-0.61988 3.4029-0.61988s0.6059-3.2243 0.44385-4.835c-0.15373-1.5281-1.3316-4.4631-1.3316-4.4631l-0.88772 7.8104-9.321 1.6117-8.2854 2.6035-6.5099 3.2234-6.5099-1.2398z"
               id="path65857" />
            <path
               d="m-49.207 179.95c2.4726-0.2276 7.5491-1.0722 9.2536-2.4678 0.79447-0.65048 3.0216-2.4678 3.0216-2.4678-0.47204 4.1027-2.9822 6.7622-8.3094 8.5646-4.2506 1.4382-9.1574 1.7709-13.786 1.4516-2.9146-0.20103-8.3094-1.4516-8.3094-1.4516 2.9595 2.6582 1.4554 4.5344-2.2662 5.8065 0 0 0.55144-2.5457-0.56655-2.9032-2.4111-0.771-5.1294 0.23359-7.6897 1.4135-1.8912 0.87152-4.7547 1.2779-6.6835 1.2601-3.2131-0.0296-4.9939-0.0607-7.9988-0.93584-1.8122-0.52773-4.956-2.541-6.288-2.341-2.8753 0.43179-6.5068 0.67459-8.1428 2.5428-0.56838 0.64903-0.49868 1.6651 0 2.3472 1.1189 1.5304 3.632 2.3295 5.8526 2.7383 6.6045 1.2159 11.995 1.2079 18.513 0.4358 6.718-0.79571 14.563-2.3892 21.279-3.351 6.6577-0.95333 15.241-2.7547 20.287-3.6252 8.9169-1.5386 12.917-1.7504 19.59-1.6686 11.686 0.14337 15.512 4.9125 15.156 10.117-0.36558 5.3471-7.4074 7.7682-13.437 9.2684-10.6 2.6375-25.155 1.1355-34.302 0.95528 0 0 3.0664 1.9739 4.4575 2.8763 1.6296 1.0571 2.444 3.2677 4.4575 3.807 2.7617 0.73972 6.9859-0.72686 9.9056-0.85661 4.0826-0.18138 11.02 0.19037 11.02 0.19037 1.0621-0.83143 1.7504-1.4086 2.8542-1.6574 0.7915-0.17883 2.0373-0.18842 2.6727-2e-3 1.2572 0.36903 2.1029 1.5058 1.5757 3.6218 0 0 0.8712 0.93787 2.2007 1.1539 1.4075 0.22916 3.0512 0.0269 3.8534 0.22148 1.3232 0.32072 3.466 1.3321 3.466 1.3321s-2.2712 0.55305-3.2163 0.9956c-0.64686 0.30292-1.51 1.3053-1.51 1.3053s3.1115 0.0413 4.4112 0.48441c1.3921 0.47462 2.6782 1.8165 2.6782 1.8165s-1.8734-0.102-2.7663 0.33123c-0.68258 0.3312-1.8025 1.243-1.8025 1.243s3.6421-0.22752 4.8838 0.60548c1.0993 0.73747 2.3632 2.0587 2.3632 2.0587s-1.965-0.0318-2.8953 0.1739c-0.60517 0.13387-1.6735 0.67378-1.6735 0.67378s2.5176 1.0088 3.6235 2.1798c0.8834 0.93542 1.1028 3.0274 1.1028 3.0274s-1.4826-0.85405-2.3935-1.1676c-0.56963-0.19612-1.8602-0.16443-1.8602-0.16443l0.58982 4.2951c0.14503 1.0561 2.0714 2.1996 2.4151 3.0166 0.43344 1.0304 0.32486 1.4175-0.45283 2.3205-0.99563 1.1564-3.0521 1.3925-4.8302 1.1602-0.98113-0.12819-2.3598-1.0798-2.3598-1.0798s-1.0039 1.4253-1.6806 1.8623c-1.1331 0.73177-1.6795 0.93403-3.1583 0.89042-1.1342-0.0335-2.0849-0.49227-2.8699-1.1225-0.90358-0.72539-1.5296-2.897-1.5296-2.897l-3.4871 0.52988c-0.75726 0.11507-3.0524-0.77265-3.3082-1.3324-0.53624-1.1732-0.58821-2.359 0.45283-3.3108 0.98846-0.90371 3.722-0.95079 5.1148-1.4485 1.7846-0.63765 3.4996-2.4831 3.4996-2.4831s-5.8258-3.4446-8.3452-5.587c-1.3853-1.178-3.7688-3.9316-3.7688-3.9316s-7.4287 1.7199-10.23 2.0693c-6.9088 0.86179-14.268 0-14.268 0-10.56 0-17.587-12.466-27.189-15.312-2.9304-0.86856-4.3098-0.73258-7.3751-0.20693-11.127 1.9081-23.005 12.746-34.029 14.981-4.5252 0.91746-13.998 1.2416-13.998 1.2416s-1.5512 2.5679-3.018 3.301c-1.5952 0.79727-5.6003 0.84938-5.6003 0.84938s-1.0243 3.0706-2.1977 4.2372c-1.2259 1.2189-4.5949 2.4002-4.5949 2.4002 0.49772-1.4006 0.79413-2.4729 0.0907-4.2428 0 0-1.675 2.45-3.3038 3.61-1.4181 1.0099-4.8778 2.258-4.8778 2.258 0.2776-1.3062 1.0713-2.5463 0-4.0254 0 0-1.4239 2.4752-2.6619 3.3898-1.2358 0.91296-4.5042 1.9067-4.5042 1.9067 0.63316-1.4124 1.0378-2.8248 0-4.2372 0 0-1.354 2.5379-2.5676 3.3898-1.6756 1.1762-5.7047 2.4642-5.7047 2.4642 0.67957-1.457 1.3332-2.914 0.83051-4.371l-2.7404-4e-3c-3.3084-5e-3 -3.5192 2.3298-5.0596 3.3926-1.5128 1.0438-3.9706 1.0673-5.1482 0.74202-2.0773-0.57373-3.9239-2.5908-1.4022-5.5554-4.3619 0.38963-6.6348-1.8925-6.6239-3.9229 0.0103-1.9507 0.85974-3.6728 5.259-3.4645 0 0-0.56866-1.6892-0.34682-2.5782 0.30881-1.2374 1.5761-2.3114 3.2908-2.1911 0.70504 0.0494 2.0134 0.43439 2.612 0.973 0.94682 0.85194 1.2079 2.0918 2.7826 3.0166 1.7829 1.047 6.0227 0.96229 6.0227 0.96229s8.2398-3.7245 13.675-5.2272c2.8919-0.79958 11.105-2.0081 11.105-2.0081l0.25737-16.852c4.9354 0.25445 2.8128 0.29015 6.9866 0.18599 5.9953-0.1496 21.745 1.8806 21.745 1.8806l11.214-0.64097s18.706-2.3572 27.604-3.0944c4.483-0.37137 9.0129-0.63838 13.515-0.44206 6.7808 0.29569 12.605 1.7007 18.978 1.9892 5.3591 0.24265 9.0194 0.69942 14.377 0.44205 7.65-0.36745 21.325 0.0637 25.67-5.7136 1.1278-1.4993 0.54867-3.5531-1.1344-4.7078-2.2207-1.5235-3.7997-2.0972-6.7614-1.5736-1.5621 0.27621-3.5483 1.1926-3.7431 2.3203-0.10557 0.61128 0.0267 1.1504 0.6944 1.8723 1.1478 1.2412 2.4449 1.8401 2.4449 1.8401s-3.8557 0.1474-5.3669-0.78191c-1.5904-0.97807-2.4814-3.8586-2.4814-3.8586-0.74774 0.79267-1.2975 1.6614-1.1715 2.7899 0.10855 0.97259-0.0046 1.5812 1.413 3.0572 0 0-3.5108-0.18844-5.192-1.6706-1.1299-0.99616-2.0527-3.9909-2.0527-3.9909-0.99615 0.7557-1.6041 1.9794-1.6466 2.8817-0.06132 1.303 0.67359 1.8746 1.0428 3.2438 0 0-3.4606-0.78175-4.8297-2.2274-1.0624-1.1219-1.6293-4.0686-1.6293-4.0686-3.981 0.7627-11.58 1.841-19.855 3.207-5.8298 0.96231-14.733 2.4412-21.025 3.0491-10.806 1.044-18.673 0.50374-25.316-1.6633-3.4569-1.1277-5.0144-2.2125-5.9056-4.7734-0.50581-1.4536 0.23926-3.5128 1.9551-5.1159 2.3921-2.235 6.5471-3.908 11.188-4.792 0 0 12.292-2.537 19.452-3.0484 11.479-0.81992 16.146 0.41313 20.943 0.87755 3.1175 0.30183 6.4717-0.19328 7.4533-1.094 0.82606-0.758 2.1927-1.5749 0.35147-3.4026 0 0 2.3329 0.0357 3.8819 2.2379 0.63263 0.89941-0.14779 2.9779-0.14779 2.9779z"
               id="path65859" />
          </g>
          <path
             d="m-131.31 218.87c14.27-0.20198 25.528-10.664 35.223-13.847-20.183 5.534-25.362 5.3235-27.919 7.32-1.0814 0.84442-1.1208 1.9686-2.1091 3.1378-0.98243 1.1622-2.9101 2.369-5.1953 3.3895z"
             id="path65863" />
          <path
             d="m-36.238 217.58c-20.531 1.1208-21.814-12.734-42.313-14.4 17.385 7.7947 19.475 19.631 42.313 14.4z"
             id="path65865" />
          <path
             d="m-27.144 216.49c2.0574 5.7586 7.2014 9.2034 12.759 12.635-2.4314-5.8042-6.6271-9.5551-12.759-12.635z"
             id="path65867" />
          <g
             stroke="#fff"
             id="g65885">
            <g
               transform="matrix(1.1462 0 0 .96046 -695.4 402.02)"
               stroke-width=".70354"
               id="g65875">
              <path
                 d="m582.91-173.1c1.206-0.45712 2.1883-0.0706 2.7078 1.0055 0.25823 0.53484 0.18919 1.2105-0.40993 1.9974-2.122-3e-3 -2.9098 0.28661-4.4602 1.9923 0.20521-3.6929 1.7668-4.0752 2.1623-4.9952z"
                 id="path65869" />
              <path
                 d="m589.89-168.72c0.89979-0.92394 1.9534-0.98877 2.879-0.23307 0.46006 0.37559 0.68302 1.0171 0.47261 1.9836-1.9245 0.89407-2.5161 1.4895-3.2003 3.6906-1.3747-3.4336-0.12095-4.44-0.15134-5.441z"
                 id="path65871" />
              <path
                 d="m598.52-169.35c0.62765-1.1266 1.6279-1.464 2.7186-0.97596 0.54211 0.24259 0.92468 0.80375 0.97364 1.7916-1.6247 1.3651-2.0405 2.0942-2.1269 4.3976-2.2227-2.9562-1.2749-4.2548-1.5653-5.2132z"
                 id="path65873" />
            </g>
            <g
               stroke-width=".73818"
               id="g65883">
              <path
                 d="m-189.93 221.09c1.3396 0.52376 1.8075 1.4588 1.3389 2.5373-0.23285 0.53604-0.84299 0.94116-1.9684 1.056-1.6941-1.4625-2.5618-1.8107-5.2023-1.735 3.1973-2.3327 4.7597-1.5141 5.8316-1.8583z"
                 id="path65877" />
              <path
                 d="m-195.47 227.54c1.4776 0.0372 2.3486 0.74088 2.4273 1.8867 0.0392 0.56948-0.33008 1.1438-1.3095 1.6222-2.2462-0.78189-3.2075-0.81414-5.597 0.13039 1.8357-3.2021 3.6571-2.9679 4.4792-3.6393z"
                 id="path65879" />
              <path
                 d="m-191.07 235.5c1.3169-0.56278 2.4844-0.29671 3.211 0.67621 0.36106 0.48358 0.36693 1.1358-0.21727 1.95-2.4182 0.21952-3.2796 0.57857-4.8327 2.3695-0.228-3.5472 1.5034-4.0758 1.839-4.9957z"
                 id="path65881" />
            </g>
          </g>
          <path
             d="m-153.04 222.52c-9.4134-0.52482-14.996 2.8256-22.682 6.4839 9.6594 0.20104 15.235-2.1518 22.682-6.4839z"
             id="path65887" />
          <g
             stroke="#fff"
             id="g65957">
            <g
               stroke-width=".73818"
               id="g65897">
              <path
                 d="m-129.14 203.95c2.2008 1.1473 4.6178-0.35604 5.1156-0.50939 0 0-1.0536-0.61612-1.7667-2.0968-0.47938-0.9954-0.64531-2.7543-0.68953-3.5788-0.16443-3.0626 1.2936-3.5375 1.3411-3.3058 0 0 2.4215-0.69553 3.4257-1.3438 0.95192-0.61356 1.3916-1.679 1.6542-2.6604 0.39378-1.4721-0.29861-3.6349-0.29861-3.6349-3.5185-0.17038-4.4131 0.21985-5.2373 1.1224 0 0-0.0728-1.5043-0.56172-2.8781-0.24372-0.68478-0.80651-1.7043-1.3834-2.3644-0.59291-0.67841-1.1968-0.98804-1.1968-0.98804-0.0218 0.78129-0.85978 1.495-1.2883 2.04 0 0-0.35702-2.992-1.2524-4.0652-0.69066-0.82778-2.597-1.9299-2.583-1.9265 0.0141 4e-3 -2.1663 0.10442-3.2804 0.49004-1.4442 0.49999-3.6686 2.8595-3.6686 2.8595-0.0104-0.65261-0.25772-1.6322 0.22618-2.3003 0 0-0.70784-0.0117-1.6435 0.2922-0.91035 0.29568-2.04 0.9006-2.6855 1.3675-1.2951 0.93677-2.3236 2.1713-2.3236 2.1713-0.0581-1.1824-0.53864-1.8632-3.6908-3.3097 0 0-1.9738 1.5097-2.5884 2.9276-0.40984 0.94537-0.72321 2.0417-0.3167 2.9881 0.42927 0.99943 2.0222 2.6785 2.0222 2.6785 0.18889-0.17385 1.1119 0.88448-0.99542 3.3905-0.56731 0.67466-1.8379 2.0816-2.8817 2.7039-1.5526 0.92558-2.8364 0.96906-2.8364 0.96906 0.78389 1.7087 0.99764 2.408 3.9824 2.7383-6.8029 4.091-7.5749 10.618-2.3519 16.177 0.3404-0.66761 1.5066-2.1836 2.1956-2.7658-0.0734-0.0482 0.0878 3.2128 2.0296 4.8734 0.63006 0.5388 0.9366 3.537 1.847 4.48 0.83044 0.86029 1.9971 1.796 1.9971 1.796s0.90529-2.3779 2.2329-2.7484c1.3369-0.37325 3.834-0.97162 4.6578-1.1893 1.6579-0.43815 4.6105-3.3983 4.6105-3.3983l-0.51876 3.6198c8.9501-2.6587 10.993-7.7508 8.7016-14.621z"
                 id="path65889" />
              <path
                 d="m-151.3 189.01c-0.56731 0.67467-3.3453 4.3933-4.3892 5.0156-1.5526 0.92558-2.8364 0.96906-2.8364 0.96906 0.78389 1.7087 0.99762 2.408 3.9824 2.7383-6.8029 4.091-7.5749 10.618-2.3519 16.177 0.34041-0.66762 1.5066-2.1836 2.1956-2.7658-0.0734-0.0482 0.0878 3.2128 2.0296 4.8734 0.63007 0.5388 0.93661 3.537 1.847 4.48 0.83044 0.86029 1.9971 1.796 1.9971 1.796s0.90528-2.3779 2.2329-2.7485c1.337-0.37323 3.834-0.9716 4.6578-1.1893 1.6579-0.43814 4.6105-3.3983 4.6105-3.3983l-0.51876 3.6198c8.9502-2.6587 10.993-7.7508 8.7016-14.621h5e-5c2.2008 1.1473 4.6178-0.35604 5.1156-0.50937 0 0-1.0536-0.61613-1.7667-2.0968-0.47938-0.99541-0.61194-2.756-0.68953-3.5788l-0.21259-2.254s-1.0118 2.5312-1.2518 3.2359c-0.24004 0.70476 0.0847 3.2108 0.0847 3.2108-1.4533-0.42957-2.9168-0.82929-4.1987-1.7622 0 0 1.5372 5.0844 1.7028 7.5068 0.0895 1.3089-0.44183 3.6333-1.0442 4.8432-0.63839 1.2823-3.7459 3.2489-3.7459 3.2489s0.74625-3.2538 0.73168-4.37c-0.0206-1.5854-0.77033-5.6121-0.77033-5.6121s-1.074 4.1272-1.9276 5.3573c-0.97124 1.3996-2.7527 3.8669-2.7527 3.8669 0.49941-3.947 0.0188-5.7199-0.58826-7.2124 0 0-0.88489 6.4568-2.9546 8.5668-0.5166 0.52666-2.4784 0.9482-3.5988 1.4375-1.2438 0.5431-1.6275 1.1274-1.6275 1.1274s-1.173-2.7469-1.4993-3.3816c-0.72242-1.4055-2.1565-2.8819-2.6455-4.3563-0.71854-2.1667 2.7482-6.8257 2.7482-6.8257-1.2833 0.0196-2.5683 1.2832-3.9521 2.6755-1.1306 1.1375-2.4221 2.338-3.0454 3.2043 0 0-1.108-3.3855-1.0898-4.3895 0.0258-1.4233 0.66487-2.8502 1.5381-4.0712 1.4171-1.9816 7.6471-6.0503 7.6471-6.0503-1.7149 0.38672-3.267 0.89849-6.5186 0.10554 0 0 2.5736-2.5292 2.9948-3.1233 1.2921-1.8225 0.80518-2.5134 1.159-3.739z"
                 id="path65891" />
              <path
                 d="m-148.02 202.34c-3.1241 6.3317 8.9626 9.534 10.731 2.5663-3.2444-0.19045-6.6411-0.68551-10.731-2.5663z"
                 id="path65893" />
              <path
                 d="m-139.58 189.63s0.67561 0.95996 1.256 1.1244c0.57878 0.16398 1.8076-0.2544 1.8076-0.2544l-0.39108-4.145z"
                 id="path65895" />
            </g>
            <g
               transform="matrix(1.1022 .2636 -.31458 .92358 -943.63 209.22)"
               stroke-width=".70354"
               id="g65903">
              <ellipse
                 transform="translate(-265.65 -796.35)"
                 cx="933.51"
                 cy="589.08"
                 rx="1.6092"
                 ry="1.577"
                 id="ellipse65899" />
              <ellipse
                 transform="translate(-260.64 -796.35)"
                 cx="933.51"
                 cy="589.08"
                 rx="1.6092"
                 ry="1.577"
                 id="ellipse65901" />
            </g>
            <g
               stroke-width=".73818"
               id="g65915">
              <path
                 d="m-144.72 184.12c-0.78137-0.0884-1.7212 0.0234-2.2877 0.48291-0.33977 0.27551-0.39323 1.1545-0.39323 1.1545l1.2251 0.0121 1.3778 0.3295 2.9722 1.1166 3.2571-0.15744s-1.7795-0.61021-2.6499-1.0231c-1.1754-0.55753-2.1627-1.7636-3.5013-1.915zm15.603 3.7316c-1.1247-0.2411-2.4134 0.25861-3.5942 0.21809-0.9994-0.0343-2.9644-0.31962-2.9644-0.31962l2.6673 1.5743 3.2278 0.36617 1.3433 0.32126 1.0482 0.5316s0.50826-0.77019 0.39323-1.1545c-0.1918-0.64082-0.91957-1.1514-1.6389-1.422-0.15403-0.058-0.32155-0.0808-0.48221-0.11533z"
                 id="path65905" />
              <path
                 d="m-125.71 187.92s-0.0728-1.5043-0.56171-2.8782c-0.24372-0.68479-0.80652-1.7043-1.3834-2.3644-0.5929-0.6784-1.1968-0.98804-1.1968-0.98804-0.0218 0.78128-0.85978 1.495-1.2883 2.04 0 0-0.35701-2.992-1.2524-4.0652-0.69064-0.82778-2.597-1.9299-2.583-1.9265 0.0141 3e-3 -2.1663 0.10442-3.2804 0.49002-1.4442 0.5-3.6686 2.8595-3.6686 2.8595-0.0103-0.6526-0.25771-1.6322 0.22619-2.3003 0 0-0.70784-0.0117-1.6435 0.2922-0.91033 0.29569-2.04 0.90059-2.6855 1.3675-1.2951 0.93676-2.3236 2.1713-2.3236 2.1713 1.1413-0.0335 3.6794-1.9513 4.661-1.7651 0.8329 0.15794 0.25514 2.0244 1.0591 2.1098 1.0964 0.1165 2.0718-1.3215 3.4356-2.3276 1.2094-0.89223 2.8893-1.5708 3.6928-1.3506 0.80865 0.22156 1.8131 1.5459 2.2404 2.8396 0.50486 1.5286 0.87767 3.1755 1.7154 3.5188 0.832 0.34101 1.5544-1.5536 2.4018-1.3154 1.0063 0.28292 1.4733 3.1691 2.4349 3.5924z"
                 id="path65907" />
              <path
                 d="m-129.14 203.95c2.2008 1.1473 4.6178-0.35604 5.1156-0.50937 0 0-1.0536-0.61613-1.7667-2.0968-0.47938-0.99541-0.64531-2.7543-0.68953-3.5788-0.16443-3.0626 1.2936-3.5375 1.341-3.3058 0 0 2.4215-0.69553 3.4257-1.3438 0.95193-0.61355 1.3916-1.679 1.6542-2.6604 0.39377-1.4721-0.29861-3.6349-0.29861-3.6349-3.5185-0.17039-4.4131 0.21985-5.2373 1.1224 0 0-0.0728-1.5043-0.56173-2.8782-0.24371-0.68478-0.8065-1.7043-1.3834-2.3644-0.59289-0.67841-1.1968-0.98805-1.1968-0.98805-0.0218 0.78129-0.85978 1.495-1.2883 2.0401 0 0-0.35701-2.992-1.2524-4.0652-0.69064-0.82778-1.5749-1.5189-2.583-1.9265-0.0134-6e-3 -2.1663 0.10443-3.2804 0.49003-1.4442 0.5-3.6686 2.8595-3.6686 2.8595-0.0103-0.65259-0.25771-1.6322 0.2262-2.3003 0 0-0.70785-0.0117-1.6435 0.29221-0.91034 0.29568-2.04 0.90059-2.6855 1.3675-1.2951 0.93677-2.3236 2.1713-2.3236 2.1713-0.0581-1.1824-0.53864-1.8632-3.6908-3.3097 0 0-1.9738 1.5096-2.5884 2.9276-0.40986 0.94536-0.72322 2.0418-0.3167 2.9881 0.42926 0.99943 2.0222 2.6785 2.0222 2.6785 0.18888-0.17385 1.1119 0.88448-0.99543 3.3905-0.56731 0.67467-1.8379 2.0816-2.8817 2.7039-1.5526 0.92558-2.8364 0.96906-2.8364 0.96906 0.78389 1.7087 0.99762 2.408 3.9824 2.7383-6.8029 4.091-7.5749 10.618-2.3519 16.177 0.34041-0.66762 1.5066-2.1836 2.1956-2.7658-0.0734-0.0482 0.0878 3.2128 2.0296 4.8734 0.63007 0.5388 0.93661 3.537 1.847 4.48 0.83044 0.86029 1.9971 1.796 1.9971 1.796s0.90528-2.3779 2.2329-2.7485c1.337-0.37323 3.834-0.9716 4.6578-1.1893 1.6579-0.43814 4.6105-3.3983 4.6105-3.3983l-0.51876 3.6198c8.9502-2.6587 10.993-7.7508 8.7016-14.621z"
                 id="path65909" />
              <path
                 d="m-147.58 185.95s0.58568-0.62327 1.0063-0.77252c0.35298-0.12523 0.77369-0.12271 1.1501-0.0594 0.26252 0.0442 0.47921 0.19808 0.71881 0.29712 0.33544 0.13867 0.66319 0.29086 1.0063 0.41598 0.30535 0.11134 0.61394 0.22028 0.93446 0.29713 0.46935 0.11253 0.95351 0.18249 1.4376 0.2377 0.30948 0.0353 0.62392 0.0312 0.93445 0.0594 0.33683 0.0306 0.66776 0.10772 1.0063 0.11884 0.38381 0.0127 1.1501-0.0594 1.1501-0.0594s-0.18477 0.51685-0.28752 0.77252c-0.11231 0.27946-0.17615 0.57945-0.35941 0.83196-0.18327 0.25251-0.46746 0.44501-0.71881 0.65367-0.27524 0.22848-0.58229 0.42943-0.86258 0.65368-0.20833 0.16667-0.42475 0.32838-0.60843 0.51381-0.20959 0.21159-0.39121 0.44228-0.55835 0.67829-0.14875 0.21003-0.39354 0.65367-0.39354 0.65367l0.0508 0.23409h-0.0719"
                 id="path65911" />
              <ellipse
                 cx="-131.32"
                 cy="190.23"
                 rx="2.4397"
                 ry="2.0169"
                 id="ellipse65913" />
            </g>
            <g
               stroke-width=".73818"
               id="g65941">
              <path
                 d="m-127.07 191.07s-0.13383-0.75003-0.35941-1.0696c-0.17076-0.24196-0.42244-0.45846-0.71881-0.59425-0.2796-0.12812-0.61846-0.13832-0.93445-0.17827-0.30881-0.039-0.62392-0.0312-0.93446-0.0594-0.33682-0.0306-0.67468-0.0614-1.0063-0.11886-0.43812-0.0758-0.8761-0.16423-1.2939-0.29712-0.45004-0.14314-0.88769-0.31998-1.2939-0.53482-0.25847-0.13672-0.47487-0.32153-0.71881-0.4754-0.2591-0.16344-0.7907-0.4754-0.7907-0.4754s-0.34633 0.20385-0.43128 0.35655c-0.13055 0.23464-0.0599 0.51444-0.0719 0.77252-0.0166 0.35629-0.0425 0.71484 0 1.0696 0.0241 0.20102 0.10251 0.39514 0.14377 0.59424 0.0572 0.27612 0.0624 0.56002 0.14376 0.83196 0.0855 0.28586 0.29861 0.54179 0.35941 0.83194 0.045 0.2147 4e-3 0.43582 0 0.65368-4e-3 0.21577-0.0247 0.64708-0.0247 0.64708"
                 id="path65917" />
              <path
                 d="m-149.78 187.08s0.48669-1.0565 0.64693-1.6045c0.1481-0.50649 0.22295-1.0267 0.28752-1.545 0.0467-0.3749 0.17078-0.76117 0.0719-1.1291-0.0884-0.32873-0.33256-0.62081-0.57505-0.89138-0.18155-0.20257-0.41108-0.37499-0.64693-0.53482-0.20043-0.13584-0.64692-0.35656-0.64692-0.35656s-0.83514 0.90285-1.0782 1.4262c-0.14828 0.31921-0.20241 0.66845-0.21565 1.0102-0.0139 0.35856-4e-3 0.73257 0.14377 1.0696 0.14784 0.33553 0.30315 0.66444 0.5155 0.97541 0.2213 0.32409 0.52833 0.6167 0.77835 0.92619 0.19783 0.24488 0.71882 0.65367 0.71882 0.65367z"
                 id="path65919" />
              <path
                 d="m-126.13 192.73s1.113-0.29322 1.6533-0.4754c0.41684-0.14056 0.84895-0.26707 1.222-0.47539 0.37933-0.21184 0.76837-0.44924 1.0063-0.77253 0.2327-0.31612 0.2605-0.70875 0.35941-1.0696 0.0914-0.33349 0.17956-0.66957 0.21564-1.0102 0.023-0.21706 0-0.65368 0-0.65368v-0.29713l-1.3657 0.17828-0.93446 0.29712s-0.58496 0.35386-0.79069 0.59425c-0.28529 0.33336-0.40098 0.74691-0.57505 1.1291-0.18691 0.41034-0.3301 0.83345-0.50316 1.2479-0.11623 0.27835-0.32054 0.53924-0.35941 0.83194-0.0211 0.15875 0.0719 0.4754 0.0719 0.4754z"
                 id="path65921" />
              <path
                 d="m-141.23 191.01c0.58685-0.1157 1.1948-0.1485 1.797-0.17827 0.28701-0.0142 0.57783-0.033 0.86257 0 0.3455 0.04 0.6812 0.13314 1.0063 0.2377 0.49932 0.16057 0.98186 0.36138 1.4376 0.59424 0.20383 0.10414 0.4104 0.21266 0.57506 0.35656 0.23747 0.20753 0.57505 0.71309 0.57505 0.71309l-0.0719 0.59425-0.14377 0.47541s-0.61846-0.13833-0.93446-0.17828c-0.30881-0.039-0.6387-0.14263-0.93445-0.0594-0.30516 0.0859-0.47661 0.35896-0.71881 0.53482-0.16597 0.12052-0.30006 0.28474-0.50316 0.35655-0.2214 0.0783-0.48039 0.0873-0.71881 0.0594-0.25553-0.0298-0.48576-0.1461-0.71882-0.2377-0.22279-0.0876-0.50324-0.13136-0.64693-0.29712-0.15604-0.18002-0.059-0.44358-0.14376-0.65368-0.0678-0.16807-0.15166-0.33838-0.28753-0.47539-0.17319-0.17466-0.4158-0.29556-0.64692-0.41598-0.13598-0.0708-0.43129-0.17828-0.43129-0.17828l-0.57505-0.23769 0.43129-0.77252s0.51789-0.18393 0.79069-0.23771z"
                 id="path65923" />
              <path
                 d="m-137.13 198.55v1.2479l-0.21564 1.4262s0.99846-0.8181 1.3657-1.3073c0.26047-0.34697 0.4432-0.73553 0.57505-1.1291 0.13568-0.40495 0.14376-0.68339 0.14376-0.68339-0.5814 0.1229-1.192 0.17338-1.8689 0.0594z"
                 id="path65925" />
              <path
                 d="m-148.27 187.8s-0.52314 1.1416-0.43129 1.7233c0.0694 0.43919 0.38726 0.84056 0.71881 1.1885 0.36832 0.38649 0.83791 0.72348 1.3658 0.95079 0.32989 0.14207 1.0782 0.23771 1.0782 0.23771s-0.42882 0.85419-0.50317 1.3074c-0.0838 0.51072-0.13659 1.0593 0.0719 1.545 0.20031 0.4667 0.65085 0.8415 1.0782 1.1885 0.37956 0.30818 0.80054 0.60788 1.2939 0.77253 0.47132 0.15729 1.0023 0.20536 1.5095 0.17827 0.44669-0.0238 0.87611-0.16425 1.2939-0.29713 0.30003-0.0954 0.86258-0.35654 0.86258-0.35654s0.37814 0.6255 0.64693 0.89137c0.32668 0.32313 0.69436 0.64379 1.1501 0.83195 0.41621 0.17183 0.90201 0.20698 1.3658 0.2377 0.50213 0.0332 1.0194 0.0367 1.5095-0.0594 0.45922-0.0901 0.93821-0.21891 1.2939-0.4754 0.44593-0.32162 0.67777-0.80712 0.93446-1.2479 0.1545-0.26532 0.24829-0.55217 0.3594-0.83195 0.078-0.19648 0.21564-0.59425 0.21564-0.59425s0.55714 0.24662 0.86258 0.29713c0.32893 0.0544 0.6774 0.0544 1.0063 0 0.30543-0.0505 0.58794-0.17562 0.86256-0.29713 0.45701-0.2022 0.95082-0.39184 1.2939-0.7131 0.24821-0.23243 0.36491-0.54373 0.50317-0.83194 0.0922-0.19224 0.21564-0.59425 0.21564-0.59425"
                 id="path65927" />
              <path
                 d="m-147.63 201.88s-0.36991 0.83583-0.46722 1.2925c-0.0915 0.42917-0.13281 0.88692-0.10783 1.3222 0.024 0.41738-0.0284 0.85504 0.14376 1.2479 0.18785 0.42877 0.54441 0.80662 0.93446 1.1291s0.87831 0.55904 1.3657 0.77252c0.63693 0.27897 1.3133 0.50937 2.0127 0.65368 0.60843 0.12555 1.2433 0.21393 1.8689 0.17827 0.76529-0.0436 1.5576-0.16758 2.2283-0.47539 0.60752-0.27882 1.0906-0.7302 1.5095-1.1885 0.31017-0.33931 0.52077-0.73655 0.71882-1.1291 0.18379-0.36427 0.43129-1.1291 0.43129-1.1291l-1.797-0.11885-2.1564-0.17827-2.1564-0.4754-2.3721-0.83195-1.3658-0.59425z"
                 id="path65929" />
              <path
                 d="m-145.61 195.28s-0.17929 2.6537-0.58378 3.8222c-0.28442 0.82168-0.88256 1.8311-0.88256 1.8311l-0.53911 0.9508"
                 id="path65931" />
              <path
                 d="m-134.31 197.86s-1.0605 1.7395-1.509 2.5421c-0.26126 0.46754-0.54061 0.93271-0.71882 1.4262-0.18589 0.51479-0.29924 1.0492-0.3594 1.5841-0.04 0.35502-0.0898 1.0548-0.0898 1.0548"
                 id="path65933" />
              <path
                 d="m-145.26 199.21 1.6173-2.5553c-0.65129-0.26831-1.2165-0.58404-1.5814-1.0102l-0.0719 0.11885-0.0719 0.68338-0.1797 1.1588 0.0719 0.89138z"
                 id="path65935" />
              <path
                 d="m-145.54 202.95v-0.4754l0.21564-2.1987-0.79069 0.83196s-0.47584 0.4518-0.64693 0.7131c-0.267 0.40779-0.25158 0.38626-0.25158 0.38626z"
                 id="path65937" />
              <path
                 d="m-137.92 201.94-1.4376 2.4661 1.6533 0.0594s0.0146 0.0102-1e-5 -0.38626c-0.0132-0.35858-0.14376-1.0696-0.14376-1.0696z"
                 id="path65939" />
            </g>
            <ellipse
               cx="-143.36"
               cy="187.27"
               rx="1.1808"
               ry=".97622"
               stroke-width=".73818"
               id="ellipse65943" />
            <ellipse
               cx="-131.39"
               cy="190.2"
               rx="1.1808"
               ry=".97622"
               stroke-width=".73818"
               id="ellipse65945" />
            <g
               stroke-width=".73818"
               id="g65955">
              <path
                 d="m-143.04 196.83c-1.5054 4.1659-2.815 8.8742-1.7955 13.211 3.5978-3.2326 5.4376-7.7709 6.7831-11.975 6e-3 -0.16968-0.98873-0.54512-1.1157-0.67919-0.31212-0.32955-0.84087-1.1087-0.84087-1.1087s-1.0053 0.53216-1.5735 0.64472c-0.48444 0.0959-1.4576-0.093-1.4576-0.093z"
                 id="path65947" />
              <path
                 d="m-145.35 185.28c0.0382-0.042 0.67347-0.96646 0.67347-0.96646s2.4016 0.34666 2.4778 0.36768c0.0762 0.021 2.1475 0.72483 2.1475 0.72483l0.10165 1.1976-0.41933-0.021-0.737-0.063-0.99114-0.12607-0.81324-0.15757-0.68617-0.2206-0.71159-0.28364-0.57181-0.25211-0.31768-0.14707z"
                 id="path65949" />
              <path
                 d="m-145.12 185.23 0.83562-1.2256 4.7621 0.93594-0.43129 1.545-0.53012-0.0371-0.82663-0.0669-0.82663-0.0966-0.78172-0.16342-0.63794-0.21541-0.71881-0.28227-0.58403-0.25256z"
                 id="path65951" />
              <path
                 d="m-134.15 187.7 0.91649-1.0994 5.5258 1.0548-0.50316 1.6119-0.56606-0.11884-0.73679-0.0594-1.0063-0.0743-0.64692-0.104-0.58403-0.11141-0.7907-0.21543-0.64693-0.27483-0.64693-0.35655z"
                 id="path65953" />
            </g>
          </g>
        </g>
      </g>
    </g>
  </g>
</svg>
